# xmcd
#
# Track frame offsets:
#	150
#	14505
#	25936
#	63569
#	80613
#	101487
#	119421
#	148305
#	169257
#
# Disc length: 2548 seconds
#
# Revision: 1
# Processed by: cddbd v1.5.2PL0 Copyright (c) Steve Scherf et al.
# Submitted via: audiograbber 1.83.01
#
DISCID=7e09f209
DTITLE=Son Henry band - Heartache And Trouble
DYEAR=2005
DGENRE=Blues
TTITLE0=Granite City Shuffle
TTITLE1=Richer Than A Sheik
TTITLE2=Heartache And Trouble
TTITLE3=First Thing Smoking
TTITLE4=Teardrops On My Pillow
TTITLE5=Love My Baby
TTITLE6=Middle Man
TTITLE7=They Say Love
TTITLE8=Going Back To Dallas
EXTD=
EXTT0=
EXTT1=
EXTT2=
EXTT3=
EXTT4=
EXTT5=
EXTT6=
EXTT7=
EXTT8=
PLAYORDER=
